<svg width="365" height="74" viewBox="0 0 365 74" fill="none" xmlns="http://www.w3.org/2000/svg">
<g clip-path="url(#clip0_163_2)">
<path d="M52.6616 49.4341H38.345V34.6162H30.6062V73.3323H38.345V57.1833H52.6616V73.3323H60.4003V34.6162H52.6616V49.4341Z" fill="#F1FBEF"/>
<path d="M186.958 49.4341H172.642V34.6162H164.903V73.3323H172.642V57.1833H186.958V73.3323H194.697V34.6162H186.958V49.4341Z" fill="#F1FBEF"/>
<path d="M86.8098 33.8423C82.8396 33.8423 78.9585 35.0199 75.6573 37.2262C72.3562 39.4325 69.7833 42.5684 68.2639 46.2374C66.7446 49.9063 66.347 53.9435 67.1216 57.8385C67.8962 61.7334 69.808 65.3111 72.6154 68.1192C75.4228 70.9273 78.9996 72.8397 82.8936 73.6144C86.7875 74.3892 90.8237 73.9915 94.4918 72.4718C98.1598 70.9521 101.295 68.3785 103.501 65.0765C105.706 61.7746 106.884 57.8925 106.884 53.9213C106.876 48.5984 104.758 43.4958 100.996 39.732C97.2326 35.9681 92.1313 33.8502 86.8098 33.8423ZM86.8098 66.0341C84.4139 66.0333 82.072 65.3218 80.0803 63.9897C78.0886 62.6575 76.5366 60.7645 75.6205 58.5501C74.7044 56.3357 74.4653 53.8992 74.9336 51.5489C75.4018 49.1986 76.5563 47.0399 78.2511 45.3459C79.9459 43.6519 82.1048 42.4986 84.4549 42.0319C86.8049 41.5651 89.2406 41.806 91.4538 42.7239C93.6671 43.6418 95.5585 45.1955 96.8889 47.1886C98.2193 49.1817 98.929 51.5247 98.9281 53.9213C98.9281 55.5127 98.6146 57.0885 98.0055 58.5586C97.3964 60.0288 96.5036 61.3645 95.3782 62.4894C94.2528 63.6143 92.9169 64.5063 91.4466 65.1145C89.9764 65.7228 88.4008 66.0352 86.8098 66.0341Z" fill="#F1FBEF"/>
<path d="M140.904 56.018L130.844 34.561H122.272L129.738 49.8255L126.316 56.3498L115.97 34.561H107.394L125.091 73.3325H126.975L133.493 59.1185L139.969 73.3325H141.853L159.592 34.561H151.02L140.904 56.018Z" fill="#F1FBEF"/>
<path d="M202.525 73.2939H226.979V65.5532H210.264V57.1448H223.985V49.3956H210.264V42.2631H227.149V34.5225H202.525V73.2939Z" fill="#F1FBEF"/>
<path d="M309.983 73.2939H334.432V65.5532H317.721V57.1448H331.439V49.3956H317.721V42.2631H334.602V34.5225H309.983V73.2939Z" fill="#F1FBEF"/>
<path d="M260.957 46.1335C260.96 43.0442 259.739 40.0795 257.56 37.8894C255.382 35.6994 252.424 34.4626 249.336 34.4502H234.743V73.2386H242.482V57.7488H246.351L253.579 73.2939H261.824L254.141 56.7068C256.176 55.79 257.902 54.304 259.111 52.4279C260.321 50.5518 260.962 48.3658 260.957 46.1335ZM249.336 50.0038H242.482V42.2079H249.336C249.848 42.2112 250.354 42.3154 250.825 42.5146C251.297 42.7137 251.725 43.0039 252.084 43.3685C252.443 43.7331 252.727 44.1649 252.92 44.6394C253.112 45.1138 253.209 45.6215 253.205 46.1335C253.211 46.6434 253.115 47.1492 252.922 47.6213C252.73 48.0935 252.445 48.5224 252.085 48.8829C251.724 49.2435 251.295 49.5284 250.823 49.7208C250.351 49.9133 249.846 50.0095 249.336 50.0038Z" fill="#F1FBEF"/>
<path d="M285.019 33.7993C281.049 33.7993 277.168 34.9769 273.867 37.1832C270.565 39.3895 267.992 42.5254 266.473 46.1944C264.954 49.8633 264.556 53.9006 265.331 57.7955C266.105 61.6904 268.017 65.2682 270.825 68.0763C273.632 70.8844 277.209 72.7967 281.103 73.5714C284.997 74.3462 289.033 73.9486 292.701 72.4288C296.369 70.9091 299.504 68.3355 301.71 65.0336C303.916 61.7316 305.093 57.8495 305.093 53.8783C305.083 48.5561 302.965 43.4548 299.202 39.6915C295.44 35.9281 290.34 33.8094 285.019 33.7993ZM285.019 65.9912C282.624 65.9912 280.283 65.2808 278.291 63.9498C276.3 62.6188 274.748 60.727 273.831 58.5137C272.914 56.3003 272.675 53.8648 273.142 51.5152C273.609 49.1655 274.762 47.0072 276.456 45.3132C278.15 43.6192 280.307 42.4655 282.656 41.9982C285.006 41.5308 287.44 41.7706 289.653 42.6874C291.866 43.6042 293.757 45.1568 295.088 47.1487C296.419 49.1407 297.129 51.4826 297.129 53.8783C297.13 55.4693 296.817 57.0449 296.209 58.515C295.601 59.9851 294.709 61.3209 293.584 62.4459C292.46 63.5709 291.124 64.4631 289.655 65.0714C288.185 65.6797 286.61 65.9923 285.019 65.9912Z" fill="#F1FBEF"/>
<path d="M13.4705 50.1868H11.6634C11.1334 50.2042 10.6054 50.1148 10.1107 49.9239C9.61604 49.7331 9.16476 49.4447 8.78375 49.0759C8.40273 48.7071 8.09976 48.2654 7.89285 47.7771C7.68594 47.2888 7.57931 46.7639 7.57931 46.2335C7.57931 45.7032 7.68594 45.1782 7.89285 44.6899C8.09976 44.2016 8.40273 43.76 8.78375 43.3911C9.16476 43.0223 9.61604 42.7339 10.1107 42.5431C10.6054 42.3522 11.1334 42.2629 11.6634 42.2802H19.9038L21.711 34.5693H11.6634C8.57005 34.5693 5.60343 35.7985 3.41612 37.9863C1.22882 40.1742 0 43.1415 0 46.2356C0 49.3297 1.22882 52.2971 3.41612 54.485C5.60343 56.6728 8.57005 57.9019 11.6634 57.9019H13.4705C14.4963 57.9356 15.4688 58.3668 16.1825 59.1046C16.8962 59.8423 17.2952 60.8286 17.2952 61.8552C17.2952 62.8818 16.8962 63.8682 16.1825 64.6059C15.4688 65.3436 14.4963 65.7748 13.4705 65.8085H2.21532L0.425204 73.5236H13.4705C16.5638 73.5236 19.5304 72.2945 21.7177 70.1067C23.905 67.9188 25.1339 64.9514 25.1339 61.8573C25.1339 58.7632 23.905 55.7959 21.7177 53.608C19.5304 51.4202 16.5638 50.191 13.4705 50.191V50.1868Z" fill="#F1FBEF"/>
<path d="M353.345 50.1868H351.538C350.512 50.1531 349.54 49.7219 348.826 48.9842C348.112 48.2465 347.713 47.2601 347.713 46.2335C347.713 45.2069 348.112 44.2206 348.826 43.4829C349.54 42.7451 350.512 42.3139 351.538 42.2802H359.778L361.59 34.5693H351.53C348.436 34.5693 345.47 35.7985 343.282 37.9863C341.095 40.1742 339.866 43.1415 339.866 46.2356C339.866 49.3297 341.095 52.2971 343.282 54.485C345.47 56.6728 348.436 57.9019 351.53 57.9019H353.345C353.875 57.8846 354.403 57.9739 354.898 58.1648C355.392 58.3556 355.844 58.644 356.225 59.0128C356.606 59.3817 356.909 59.8233 357.116 60.3116C357.323 60.7999 357.429 61.3249 357.429 61.8552C357.429 62.3856 357.323 62.9105 357.116 63.3988C356.909 63.8871 356.606 64.3288 356.225 64.6976C355.844 65.0664 355.392 65.3548 354.898 65.5456C354.403 65.7365 353.875 65.8259 353.345 65.8085H342.086L340.279 73.5194H353.345C356.438 73.5194 359.405 72.2903 361.592 70.1024C363.78 67.9146 365.009 64.9472 365.009 61.8531C365.009 58.759 363.78 55.7916 361.592 53.6038C359.405 51.4159 356.438 50.1868 353.345 50.1868Z" fill="#F1FBEF"/>
<path d="M302.512 0C300.425 0 298.386 0.618863 296.651 1.77833C294.916 2.9378 293.564 4.58579 292.766 6.51392C291.967 8.44204 291.758 10.5637 292.165 12.6106C292.572 14.6575 293.577 16.5376 295.052 18.0134C296.528 19.4891 298.407 20.4941 300.454 20.9012C302.5 21.3084 304.621 21.0994 306.549 20.3008C308.477 19.5021 310.124 18.1496 311.283 16.4144C312.443 14.6791 313.061 12.639 313.061 10.552C313.057 7.75481 311.944 5.07348 309.966 3.09557C307.989 1.11767 305.308 0.00449889 302.512 0ZM302.512 18.8073C300.879 18.8073 299.282 18.3228 297.924 17.415C296.566 16.5072 295.507 15.217 294.883 13.7075C294.258 12.1981 294.094 10.5371 294.413 8.93481C294.732 7.3325 295.519 5.86079 296.674 4.70584C297.83 3.55089 299.302 2.76458 300.904 2.44636C302.506 2.12815 304.166 2.29232 305.675 2.91812C307.184 3.54392 308.473 4.60323 309.38 5.96206C310.287 7.3209 310.77 8.91822 310.769 10.552C310.766 12.7411 309.895 14.8396 308.347 16.3871C306.799 17.9347 304.701 18.805 302.512 18.8073Z" fill="#F1FBEF"/>
<path d="M277.837 12.6192H283.186C283.318 12.6192 283.45 12.6192 283.582 12.5979L287.409 20.7724H290.058L285.95 11.96C287.181 11.3415 288.166 10.3253 288.747 9.07633C289.328 7.82732 289.47 6.4187 289.15 5.07891C288.83 3.73911 288.067 2.54673 286.984 1.69513C285.902 0.843523 284.564 0.382647 283.186 0.387241H275.533V20.8022H277.863L277.837 12.6192ZM277.837 2.70094H283.186C283.696 2.68388 284.204 2.76955 284.68 2.95285C285.156 3.13615 285.59 3.41333 285.956 3.76789C286.323 4.12245 286.614 4.54715 286.813 5.0167C287.012 5.48626 287.115 5.99107 287.115 6.5011C287.115 7.01112 287.012 7.51594 286.813 7.98549C286.614 8.45505 286.323 8.87974 285.956 9.23431C285.59 9.58887 285.156 9.86605 284.68 10.0493C284.204 10.2326 283.696 10.3183 283.186 10.3013H277.837V2.70094Z" fill="#F1FBEF"/>
<path d="M351.274 6.50319C351.274 4.88113 350.63 3.32551 349.484 2.17854C348.337 1.03157 346.782 0.387207 345.16 0.387207H337.506V20.8022H339.836V12.6192H345.164C346.785 12.618 348.339 11.9732 349.485 10.8263C350.631 9.67949 351.274 8.12451 351.274 6.50319ZM339.832 2.7009H345.16C346.146 2.73389 347.08 3.14871 347.765 3.85778C348.451 4.56684 348.834 5.51465 348.834 6.50106C348.834 7.48748 348.451 8.43529 347.765 9.14435C347.08 9.85342 346.146 10.2682 345.16 10.3012H339.832V2.7009Z" fill="#F1FBEF"/>
<path d="M325.044 21.0361C327.276 21.0361 329.416 20.1494 330.995 18.5711C332.574 16.9927 333.461 14.8519 333.463 12.6192V0.387207L331.235 0.425485V12.6192C331.235 14.2615 330.582 15.8366 329.421 16.998C328.26 18.1593 326.686 18.8117 325.044 18.8117C323.402 18.8117 321.827 18.1593 320.666 16.998C319.505 15.8366 318.853 14.2615 318.853 12.6192V0.425485H316.625V12.6192C316.625 13.7249 316.842 14.8197 317.265 15.8412C317.689 16.8626 318.309 17.7907 319.091 18.5723C319.872 19.354 320.801 19.9739 321.822 20.3966C322.843 20.8194 323.938 21.0367 325.044 21.0361Z" fill="#F1FBEF"/>
<path d="M271.706 17.0933V9.40364H265.91V11.6961H269.431V16.8423C268.418 17.7022 267.212 18.3047 265.916 18.5986C264.621 18.8925 263.273 18.8692 261.988 18.5305C260.703 18.1919 259.519 17.548 258.537 16.6535C257.554 15.7591 256.802 14.6405 256.344 13.3929C255.886 12.1453 255.736 10.8056 255.906 9.48758C256.077 8.16957 256.563 6.91224 257.324 5.82247C258.084 4.7327 259.097 3.84271 260.275 3.22813C261.453 2.61355 262.762 2.29255 264.09 2.29243C265.065 2.29983 266.031 2.47834 266.944 2.81982L267.794 0.693258C266.615 0.243864 265.365 0.00908009 264.103 0L264.052 0C262.307 0.0023803 260.59 0.437766 259.054 1.26715C257.519 2.09653 256.213 3.294 255.254 4.75225C254.294 6.21051 253.712 7.88401 253.558 9.6228C253.405 11.3616 253.685 13.1113 254.373 14.7153C255.062 16.3193 256.137 17.7273 257.504 18.8133C258.87 19.8992 260.484 20.6292 262.202 20.9378C263.919 21.2464 265.687 21.1239 267.345 20.5813C269.004 20.0388 270.502 19.0931 271.706 17.8291V17.0933Z" fill="#F1FBEF"/>
</g>
<defs>
<clipPath id="clip0_163_2">
<rect width="365" height="74" fill="white"/>
</clipPath>
</defs>
</svg>
